<svg width="24" height="20" viewBox="0 0 29 21" fill="none" xmlns="http://www.w3.org/2000/svg">
<path d="M14.4994 2.33154C19.9123 2.33154 24.7294 7.3831 26.7908 9.89558C27.0807 10.2488 27.0807 10.7511 26.7909 11.1044C24.7295 13.6174 19.9121 18.6684 14.4994 18.6684C9.08513 18.6684 4.26747 13.614 2.20732 11.1022C1.91782 10.7493 1.91754 10.2476 2.20669 9.8943C4.263 7.38207 9.07045 2.33154 14.4994 2.33154ZM14.4994 0.943604C7.6534 0.943604 1.91585 7.92777 0.394859 9.9547C0.14876 10.2827 0.148763 10.7173 0.394867 11.0452C1.91587 13.0721 7.65341 20.0561 14.4994 20.0561C21.3464 20.0561 27.0841 13.0721 28.6051 11.0452C28.8512 10.7173 28.8512 10.2827 28.6051 9.9547C27.0841 7.92777 21.3464 0.943604 14.4994 0.943604Z" fill="#000"/>
<path d="M14.4994 16.034C11.4474 16.034 8.96472 13.551 8.96472 10.5C8.96472 7.44886 11.4474 4.96588 14.4994 4.96588C17.5513 4.96588 20.034 7.44886 20.034 10.5C20.034 13.551 17.551 16.034 14.4994 16.034ZM14.4994 6.35382C12.2133 6.35382 10.3524 8.21388 10.3524 10.5C10.3524 12.786 12.2133 14.6464 14.4994 14.6464C16.7869 14.6464 18.6464 12.7863 18.6464 10.5C18.6464 8.21359 16.7869 6.35382 14.4994 6.35382Z" fill="#000"/>
<path d="M5 20L23 2" stroke="#000" stroke-width="1.5" stroke-miterlimit="10" stroke-linecap="round" stroke-linejoin="round"/>
<path d="M4 19L22 0.999999" stroke="white" stroke-width="1.5" stroke-miterlimit="10" stroke-linecap="round" stroke-linejoin="round"/>
</svg>
